<svg width="1300" height="1300" viewBox="0 0 1300 1300" fill="none" xmlns="http://www.w3.org/2000/svg">
<g clip-path="url(#clip0_410_635)">
<path d="M400.427 670.545C384.642 672.441 361.762 689.241 356.141 693.011C365.111 699.67 389.014 713.332 412.877 714.709C442.705 716.43 473.483 724.422 493.94 738.638C514.397 752.853 552.617 775.821 643.977 783.217C704.335 788.103 822.469 762.972 867.713 727.921C888.532 711.793 934.566 703.957 949.929 680.291C924.083 641.337 820.186 555.034 777.662 535.134C735.138 515.233 690.26 471.389 671.602 451.052C671.602 451.052 632.496 474.195 614.533 494.316C592.078 519.466 532.62 561.352 508.466 576.001C484.313 590.651 420.158 668.174 400.427 670.545Z" fill="#5D0FC4"/>
<path d="M400.427 670.545C384.642 672.441 361.762 689.241 356.141 693.011C365.111 699.67 389.014 713.332 412.877 714.709C442.705 716.43 473.483 724.422 493.94 738.638C514.397 752.853 552.617 775.821 643.977 783.217C861.927 777.633 890.532 710.323 888.532 686.418C886.939 667.382 870.587 655.626 863.841 639.381C857.095 623.136 836.291 609.654 821.602 605.137C800.189 598.553 782.737 579.025 766.938 562.794C751.139 546.564 698.188 511.463 683.36 480.356L671.602 451.052C671.602 451.052 632.496 474.195 614.533 494.316C592.078 519.466 532.62 561.352 508.466 576.001C484.313 590.651 420.158 668.174 400.427 670.545Z" fill="#8671F4"/>
<path d="M400.427 670.545C384.642 672.441 361.762 689.241 356.141 693.011C365.111 699.67 389.014 713.332 412.877 714.709C442.705 716.43 473.483 724.422 493.94 738.638C514.397 752.853 552.617 775.821 643.977 783.217C707.772 787.953 793.097 766.677 810.858 746.683C834.992 719.515 825.922 670.036 798.157 656.211C771.784 643.079 757.749 594.823 745.044 580.342C732.34 565.86 707.193 542.9 684.927 516.807C667.114 495.932 668.621 464.273 671.602 451.052C671.602 451.052 632.496 474.195 614.533 494.316C592.078 519.466 532.62 561.352 508.466 576.001C484.313 590.651 420.158 668.174 400.427 670.545Z" fill="#CFC8FF"/>
<path d="M643.977 783.217C552.617 775.821 514.397 752.853 493.94 738.638C514.218 742.264 557.059 739.06 578.481 704.447C582.322 700.27 588.564 686.566 582.799 665.166C575.594 638.416 606.893 629.534 616.451 606.564C626.009 583.594 621.194 567.265 630.605 545.805C634.017 538.023 636.942 529.357 639.273 521.406C641.022 512.267 643.154 504.17 644.924 498.571C644.03 503.268 642.084 511.816 639.273 521.406C635.784 539.637 633.821 562.017 639.301 577C649.584 605.12 648.39 617.2 643.041 662.54C637.692 707.879 675.945 750.248 643.977 783.217Z" fill="#8671F4"/>
<path d="M512.014 668.252C497.401 692.946 440.857 710.114 412.877 714.709L431.081 680.802C445.288 660.637 491.254 642.094 496.753 629.825C502.253 617.557 508.733 593.218 544.616 585.639C563.515 581.648 574.841 569.992 580.953 559.322C583.547 551.962 585.64 546.824 586.585 544.717C585.892 548.514 584.124 553.785 580.953 559.322C579.771 562.675 578.486 566.489 577.158 570.689C571.856 587.459 555.224 586.68 537.873 603.976C520.522 621.271 530.28 637.385 512.014 668.252Z" fill="#8671F4"/>
<path d="M858.858 747.023C854.066 748.348 849.695 752.681 850.751 754.658C852.257 754.619 869.867 764.774 877.478 767.585C885.09 770.396 892.587 768.702 909.049 763.774C922.218 759.832 926.413 754.817 926.864 752.802C918.793 731.971 881.003 728.427 876.597 733.047C872.191 737.668 864.847 745.368 858.858 747.023Z" fill="#5D0FC4"/>
<path d="M858.858 747.023C854.066 748.348 849.695 752.681 850.751 754.658C855.323 756.545 864.505 761.82 867.519 761.743C870.533 761.666 877.246 758.49 880.661 744.879C883.393 733.99 879.09 732.454 876.597 733.047C872.191 737.668 864.847 745.368 858.858 747.023Z" fill="#8671F4"/>
<path d="M800.944 790.711C799.729 794.632 793.334 795.227 794.208 796.801C795.459 796.769 810.066 804.847 816.382 807.081C822.697 809.314 830.534 806.72 836.559 804.103C846.994 799.571 850.979 796.95 851.356 795.343C844.674 778.75 823.49 783.893 820.643 773.658C818.983 767.69 802.827 784.631 800.944 790.711Z" fill="#5D0FC4"/>
<path d="M801.234 790.121C800.04 794.238 793.294 794.891 794.208 796.555C798.167 798.141 802.146 801.176 804.757 801.11C807.367 801.043 823.594 799.2 818.013 788.751C814.846 782.821 820.681 775.16 820.643 773.658C818.983 767.69 802.827 784.631 801.234 790.121Z" fill="#8671F4"/>
<path d="M412.764 754.601C408.798 755.829 405.831 761.623 405.869 763.124C407.118 763.093 419.662 771.788 428.25 773.927C434.86 775.573 440.772 775.016 454.399 770.443C465.3 766.784 468.762 762.094 469.13 760.206C462.385 740.657 432.352 735.129 429.407 739.985C424.74 747.679 417.723 753.066 412.764 754.601Z" fill="#8671F4"/>
<path d="M411.921 754.868C408.432 756.093 405.088 761.252 405.869 763.124C407.415 764.588 420.478 771.767 422.677 771.711C424.876 771.655 417.786 761.365 427.82 752.963C432.651 748.918 431.223 739.438 429.407 739.985C426.217 744.324 416.283 753.338 411.921 754.868Z" fill="#CFC8FF"/>
<path d="M994.745 662.374L1031.39 640.384L994.745 618.394V662.374Z" fill="#5D0FC4" stroke="#5D0FC4" stroke-width="20" stroke-linejoin="round"/>
<path d="M983.976 727.731L1024.21 713.314L992.556 684.597L983.976 727.731Z" fill="#5D0FC4" stroke="#5D0FC4" stroke-width="20" stroke-linejoin="round"/>
<path d="M960.663 789.733L1002.94 783.442L977.493 749.101L960.663 789.733Z" fill="#5D0FC4" stroke="#5D0FC4" stroke-width="20" stroke-linejoin="round"/>
<path d="M925.703 845.994L968.393 848.071L950.137 809.426L925.703 845.994Z" fill="#5D0FC4" stroke="#5D0FC4" stroke-width="20" stroke-linejoin="round"/>
<path d="M880.438 894.354L921.902 904.72L911.536 863.255L880.438 894.354Z" fill="#5D0FC4" stroke="#5D0FC4" stroke-width="20" stroke-linejoin="round"/>
<path d="M826.609 932.953L865.254 951.21L863.177 908.52L826.609 932.953Z" fill="#5D0FC4" stroke="#5D0FC4" stroke-width="20" stroke-linejoin="round"/>
<path d="M766.283 960.31L800.624 985.755L806.915 943.48L766.283 960.31Z" fill="#5D0FC4" stroke="#5D0FC4" stroke-width="20" stroke-linejoin="round"/>
<path d="M701.78 975.372L730.497 1007.03L744.915 966.792L701.78 975.372Z" fill="#5D0FC4" stroke="#5D0FC4" stroke-width="20" stroke-linejoin="round"/>
<path d="M635.577 977.562L657.567 1014.21L679.557 977.562H635.577Z" fill="#5D0FC4" stroke="#5D0FC4" stroke-width="20" stroke-linejoin="round"/>
<path d="M570.22 966.793L584.637 1007.03L613.355 975.373L570.22 966.793Z" fill="#5D0FC4" stroke="#5D0FC4" stroke-width="20" stroke-linejoin="round"/>
<path d="M508.218 943.48L514.509 985.755L548.85 960.311L508.218 943.48Z" fill="#5D0FC4" stroke="#5D0FC4" stroke-width="20" stroke-linejoin="round"/>
<path d="M451.957 908.52L449.879 951.21L488.525 932.954L451.957 908.52Z" fill="#5D0FC4" stroke="#5D0FC4" stroke-width="20" stroke-linejoin="round"/>
<path d="M403.597 863.255L393.231 904.72L434.695 894.354L403.597 863.255Z" fill="#5D0FC4" stroke="#5D0FC4" stroke-width="20" stroke-linejoin="round"/>
<path d="M364.997 809.426L346.741 848.071L389.431 845.994L364.997 809.426Z" fill="#5D0FC4" stroke="#5D0FC4" stroke-width="20" stroke-linejoin="round"/>
<path d="M337.64 749.1L312.196 783.441L354.471 789.732L337.64 749.1Z" fill="#5D0FC4" stroke="#5D0FC4" stroke-width="20" stroke-linejoin="round"/>
<path d="M322.578 684.597L290.923 713.314L331.158 727.731L322.578 684.597Z" fill="#5D0FC4" stroke="#5D0FC4" stroke-width="20" stroke-linejoin="round"/>
<path d="M320.39 618.394L283.74 640.384L320.39 662.374V618.394Z" fill="#5D0FC4" stroke="#5D0FC4" stroke-width="20" stroke-linejoin="round"/>
<path d="M331.158 553.036L290.923 567.454L322.578 596.171L331.158 553.036Z" fill="#5D0FC4" stroke="#5D0FC4" stroke-width="20" stroke-linejoin="round"/>
<path d="M354.471 491.036L312.196 497.326L337.641 531.667L354.471 491.036Z" fill="#5D0FC4" stroke="#5D0FC4" stroke-width="20" stroke-linejoin="round"/>
<path d="M389.431 434.774L346.741 432.696L364.997 471.342L389.431 434.774Z" fill="#5D0FC4" stroke="#5D0FC4" stroke-width="20" stroke-linejoin="round"/>
<path d="M434.696 386.414L393.231 376.048L403.597 417.512L434.696 386.414Z" fill="#5D0FC4" stroke="#5D0FC4" stroke-width="20" stroke-linejoin="round"/>
<path d="M488.525 347.814L449.88 329.558L451.957 372.248L488.525 347.814Z" fill="#5D0FC4" stroke="#5D0FC4" stroke-width="20" stroke-linejoin="round"/>
<path d="M548.851 320.457L514.51 295.013L508.219 337.288L548.851 320.457Z" fill="#5D0FC4" stroke="#5D0FC4" stroke-width="20" stroke-linejoin="round"/>
<path d="M613.355 305.395L584.638 273.74L570.22 313.975L613.355 305.395Z" fill="#5D0FC4" stroke="#5D0FC4" stroke-width="20" stroke-linejoin="round"/>
<path d="M679.556 303.207L657.567 266.557L635.577 303.207H679.556Z" fill="#5D0FC4" stroke="#5D0FC4" stroke-width="20" stroke-linejoin="round"/>
<path d="M744.914 313.975L730.496 273.74L701.779 305.395L744.914 313.975Z" fill="#5D0FC4" stroke="#5D0FC4" stroke-width="20" stroke-linejoin="round"/>
<path d="M806.916 337.288L800.625 295.013L766.284 320.458L806.916 337.288Z" fill="#5D0FC4" stroke="#5D0FC4" stroke-width="20" stroke-linejoin="round"/>
<path d="M863.177 372.248L865.255 329.558L826.609 347.814L863.177 372.248Z" fill="#5D0FC4" stroke="#5D0FC4" stroke-width="20" stroke-linejoin="round"/>
<path d="M911.537 417.512L921.903 376.048L880.438 386.414L911.537 417.512Z" fill="#5D0FC4" stroke="#5D0FC4" stroke-width="20" stroke-linejoin="round"/>
<path d="M950.137 471.342L968.393 432.696L925.703 434.774L950.137 471.342Z" fill="#5D0FC4" stroke="#5D0FC4" stroke-width="20" stroke-linejoin="round"/>
<path d="M977.493 531.668L1002.94 497.326L960.663 491.036L977.493 531.668Z" fill="#5D0FC4" stroke="#5D0FC4" stroke-width="20" stroke-linejoin="round"/>
<path d="M992.556 596.171L1024.21 567.454L983.976 553.037L992.556 596.171Z" fill="#5D0FC4" stroke="#5D0FC4" stroke-width="20" stroke-linejoin="round"/>
<mask id="path-34-inside-1_410_635" fill="white">
<path fill-rule="evenodd" clip-rule="evenodd" d="M536.621 913.83C539.24 933.18 517.226 946.098 501.611 934.373L425.549 877.266C410.039 865.621 416.093 841.06 435.238 837.956L502.104 827.117C514.32 825.137 525.766 833.619 527.425 845.883L536.621 913.83ZM471.146 863.259C478.547 853.629 492.352 851.823 501.981 859.224C511.61 866.625 513.417 880.431 506.016 890.06C498.615 899.689 484.809 901.495 475.18 894.094C465.551 886.693 463.745 872.888 471.146 863.259Z"/>
</mask>
<path fill-rule="evenodd" clip-rule="evenodd" d="M536.621 913.83C539.24 933.18 517.226 946.098 501.611 934.373L425.549 877.266C410.039 865.621 416.093 841.06 435.238 837.956L502.104 827.117C514.32 825.137 525.766 833.619 527.425 845.883L536.621 913.83ZM471.146 863.259C478.547 853.629 492.352 851.823 501.981 859.224C511.61 866.625 513.417 880.431 506.016 890.06C498.615 899.689 484.809 901.495 475.18 894.094C465.551 886.693 463.745 872.888 471.146 863.259Z" fill="#5D0FC4"/>
<path d="M501.611 934.373L498.008 939.171L498.008 939.171L501.611 934.373ZM536.621 913.83L530.675 914.634L530.675 914.634L536.621 913.83ZM425.549 877.266L421.947 882.064L421.947 882.064L425.549 877.266ZM435.238 837.956L434.278 832.034L434.278 832.034L435.238 837.956ZM502.104 827.117L503.064 833.04L503.064 833.04L502.104 827.117ZM527.425 845.883L521.48 846.688L521.48 846.688L527.425 845.883ZM475.18 894.094L471.524 898.851L471.524 898.851L475.18 894.094ZM498.008 939.171C517.883 954.093 545.9 937.653 542.567 913.025L530.675 914.634C532.58 928.708 516.57 938.102 505.213 929.575L498.008 939.171ZM421.947 882.064L498.008 939.171L505.213 929.575L429.152 872.468L421.947 882.064ZM434.278 832.034C409.911 835.984 402.206 867.243 421.947 882.064L429.152 872.468C417.872 863.998 422.274 846.136 436.198 843.879L434.278 832.034ZM501.144 821.194L434.278 832.034L436.198 843.879L503.064 833.04L501.144 821.194ZM533.371 845.078C531.259 829.469 516.692 818.674 501.144 821.194L503.064 833.04C511.949 831.599 520.273 837.768 521.48 846.688L533.371 845.078ZM542.567 913.025L533.371 845.078L521.48 846.688L530.675 914.634L542.567 913.025ZM505.638 854.467C493.381 845.047 475.809 847.346 466.389 859.602L475.903 866.915C481.284 859.913 491.323 858.6 498.325 863.981L505.638 854.467ZM510.773 893.716C520.193 881.46 517.894 863.887 505.638 854.467L498.325 863.981C505.327 869.363 506.64 879.402 501.258 886.403L510.773 893.716ZM471.524 898.851C483.78 908.272 501.353 905.972 510.773 893.716L501.258 886.403C495.877 893.405 485.838 894.718 478.836 889.337L471.524 898.851ZM466.389 859.602C456.968 871.858 459.267 889.431 471.524 898.851L478.836 889.337C471.835 883.955 470.521 873.917 475.903 866.915L466.389 859.602Z" fill="#5D0FC4" mask="url(#path-34-inside-1_410_635)"/>
<mask id="path-36-inside-2_410_635" fill="white">
<path fill-rule="evenodd" clip-rule="evenodd" d="M588.863 349.776C573.621 336.381 583.095 311.25 603.386 311.25H713.566C733.856 311.25 743.33 336.381 728.088 349.776L672.998 398.188C664.692 405.487 652.259 405.487 643.953 398.188L588.863 349.776ZM679.644 344.397C679.644 356.542 669.798 366.387 657.654 366.387C645.509 366.387 635.664 356.542 635.664 344.397C635.664 332.252 645.509 322.407 657.654 322.407C669.798 322.407 679.644 332.252 679.644 344.397Z"/>
</mask>
<path fill-rule="evenodd" clip-rule="evenodd" d="M588.863 349.776C573.621 336.381 583.095 311.25 603.386 311.25H713.566C733.856 311.25 743.33 336.381 728.088 349.776L672.998 398.188C664.692 405.487 652.259 405.487 643.953 398.188L588.863 349.776ZM679.644 344.397C679.644 356.542 669.798 366.387 657.654 366.387C645.509 366.387 635.664 356.542 635.664 344.397C635.664 332.252 645.509 322.407 657.654 322.407C669.798 322.407 679.644 332.252 679.644 344.397Z" fill="#5D0FC4"/>
<path d="M588.863 349.776L584.902 354.283L584.902 354.283L588.863 349.776ZM728.088 349.776L724.127 345.269L724.127 345.269L728.088 349.776ZM672.998 398.188L676.959 402.695L676.959 402.695L672.998 398.188ZM643.953 398.188L639.992 402.695L639.992 402.695L643.953 398.188ZM603.386 305.25C577.561 305.25 565.504 337.235 584.902 354.283L592.824 345.269C581.739 335.527 588.629 317.25 603.386 317.25V305.25ZM713.566 305.25H603.386V317.25H713.566V305.25ZM732.049 354.283C751.447 337.235 739.39 305.25 713.566 305.25V317.25C728.323 317.25 735.212 335.527 724.127 345.269L732.049 354.283ZM676.959 402.695L732.049 354.283L724.127 345.269L669.038 393.681L676.959 402.695ZM639.992 402.695C650.564 411.985 666.388 411.985 676.959 402.695L669.038 393.681C662.997 398.99 653.955 398.99 647.914 393.681L639.992 402.695ZM584.902 354.283L639.992 402.695L647.914 393.681L592.824 345.269L584.902 354.283ZM657.654 372.387C673.112 372.387 685.644 359.855 685.644 344.397H673.644C673.644 353.228 666.485 360.387 657.654 360.387V372.387ZM629.664 344.397C629.664 359.855 642.195 372.387 657.654 372.387V360.387C648.823 360.387 641.664 353.228 641.664 344.397H629.664ZM657.654 316.407C642.195 316.407 629.664 328.939 629.664 344.397H641.664C641.664 335.566 648.823 328.407 657.654 328.407V316.407ZM685.644 344.397C685.644 328.939 673.112 316.407 657.654 316.407V328.407C666.485 328.407 673.644 335.566 673.644 344.397H685.644Z" fill="#5D0FC4" mask="url(#path-36-inside-2_410_635)"/>
<mask id="path-38-inside-3_410_635" fill="white">
<path fill-rule="evenodd" clip-rule="evenodd" d="M361.589 610.329C344.202 619.257 324.674 602.772 330.56 584.134L360.205 490.26C366.158 471.409 392.02 469.365 400.861 487.047L432.152 549.629C437.544 560.414 433.25 573.53 422.524 579.038L361.589 610.329ZM389.602 526.078C401.152 529.831 407.473 542.237 403.72 553.787C399.968 565.337 387.562 571.658 376.012 567.905C364.461 564.152 358.14 551.747 361.893 540.196C365.646 528.646 378.052 522.325 389.602 526.078Z"/>
</mask>
<path fill-rule="evenodd" clip-rule="evenodd" d="M361.589 610.329C344.202 619.257 324.674 602.772 330.56 584.134L360.205 490.26C366.158 471.409 392.02 469.365 400.861 487.047L432.152 549.629C437.544 560.414 433.25 573.53 422.524 579.038L361.589 610.329ZM389.602 526.078C401.152 529.831 407.473 542.237 403.72 553.787C399.968 565.337 387.562 571.658 376.012 567.905C364.461 564.152 358.14 551.747 361.893 540.196C365.646 528.646 378.052 522.325 389.602 526.078Z" fill="#5D0FC4"/>
<path d="M330.56 584.134L336.282 585.94L336.282 585.94L330.56 584.134ZM361.589 610.329L358.848 604.991L358.848 604.991L361.589 610.329ZM360.205 490.26L354.483 488.454L354.483 488.454L360.205 490.26ZM400.861 487.047L395.494 489.73L395.494 489.73L400.861 487.047ZM432.152 549.629L426.785 552.312L426.785 552.312L432.152 549.629ZM422.524 579.038L425.265 584.375L425.265 584.375L422.524 579.038ZM403.72 553.787L409.427 555.641L409.427 555.641L403.72 553.787ZM389.602 526.078L387.748 531.784L387.748 531.784L389.602 526.078ZM361.893 540.196L367.6 542.051L367.6 542.051L361.893 540.196ZM324.839 582.327C317.348 606.048 342.201 627.03 364.33 615.666L358.848 604.991C346.203 611.485 332.001 599.496 336.282 585.94L324.839 582.327ZM354.483 488.454L324.839 582.327L336.282 585.94L365.926 492.067L354.483 488.454ZM406.227 484.363C394.975 461.859 362.06 464.461 354.483 488.454L365.926 492.067C370.256 478.357 389.065 476.87 395.494 489.73L406.227 484.363ZM437.518 546.945L406.227 484.363L395.494 489.73L426.785 552.312L437.518 546.945ZM425.265 584.375C438.917 577.365 444.381 560.672 437.518 546.945L426.785 552.312C430.707 560.156 427.584 569.694 419.783 573.7L425.265 584.375ZM364.33 615.666L425.265 584.375L419.783 573.7L358.848 604.991L364.33 615.666ZM409.427 555.641C414.204 540.939 406.158 525.149 391.456 520.372L387.748 531.784C396.147 534.513 400.743 543.534 398.014 551.933L409.427 555.641ZM374.157 573.612C388.859 578.388 404.65 570.343 409.427 555.641L398.014 551.933C395.285 560.332 386.264 564.928 377.866 562.199L374.157 573.612ZM356.187 538.342C351.41 553.044 359.456 568.835 374.157 573.612L377.866 562.199C369.467 559.47 364.871 550.449 367.6 542.051L356.187 538.342ZM391.456 520.372C376.754 515.595 360.964 523.641 356.187 538.342L367.6 542.051C370.329 533.652 379.349 529.056 387.748 531.784L391.456 520.372Z" fill="#5D0FC4" mask="url(#path-38-inside-3_410_635)"/>
<mask id="path-40-inside-4_410_635" fill="white">
<path fill-rule="evenodd" clip-rule="evenodd" d="M878.849 838.604C897.999 841.955 903.708 866.679 887.967 878.088L812.228 932.984C796.273 944.548 774.331 930.918 777.627 911.491L788.857 845.305C790.897 833.283 802.328 825.213 814.34 827.315L878.849 838.604ZM810.546 886.557C803.53 876.644 805.879 862.92 815.792 855.904C825.705 848.888 839.429 851.237 846.444 861.15C853.46 871.063 851.112 884.787 841.198 891.803C831.285 898.819 817.562 896.47 810.546 886.557Z"/>
</mask>
<path fill-rule="evenodd" clip-rule="evenodd" d="M878.849 838.604C897.999 841.955 903.708 866.679 887.967 878.088L812.228 932.984C796.273 944.548 774.331 930.918 777.627 911.491L788.857 845.305C790.897 833.283 802.328 825.213 814.34 827.315L878.849 838.604ZM810.546 886.557C803.53 876.644 805.879 862.92 815.792 855.904C825.705 848.888 839.429 851.237 846.444 861.15C853.46 871.063 851.112 884.787 841.198 891.803C831.285 898.819 817.562 896.47 810.546 886.557Z" fill="#5D0FC4"/>
<path d="M887.967 878.088L884.446 873.23L887.967 878.088ZM878.849 838.604L877.814 844.514L877.814 844.514L878.849 838.604ZM812.228 932.984L808.707 928.126L808.707 928.126L812.228 932.984ZM777.627 911.491L771.711 910.487L771.711 910.487L777.627 911.491ZM788.857 845.305L794.773 846.309L794.773 846.309L788.857 845.305ZM814.34 827.315L813.305 833.225L813.305 833.225L814.34 827.315ZM810.546 886.557L815.443 883.091L815.443 883.091L810.546 886.557ZM891.489 882.946C911.523 868.425 904.256 836.959 879.883 832.694L877.814 844.514C891.742 846.952 895.894 864.932 884.446 873.23L891.489 882.946ZM815.749 937.843L891.489 882.946L884.446 873.23L808.707 928.126L815.749 937.843ZM771.711 910.487C767.516 935.213 795.443 952.56 815.749 937.843L808.707 928.126C797.103 936.536 781.145 926.623 783.542 912.495L771.711 910.487ZM782.942 844.302L771.711 910.487L783.542 912.495L794.773 846.309L782.942 844.302ZM815.374 821.405C800.086 818.729 785.538 829 782.942 844.302L794.773 846.309C796.257 837.565 804.569 831.696 813.305 833.225L815.374 821.405ZM879.883 832.694L815.374 821.405L813.305 833.225L877.814 844.514L879.883 832.694ZM812.326 851.007C799.708 859.937 796.718 877.405 805.648 890.023L815.443 883.091C810.342 875.882 812.05 865.903 819.258 860.802L812.326 851.007ZM851.342 857.684C842.412 845.066 824.944 842.077 812.326 851.007L819.258 860.802C826.466 855.7 836.445 857.408 841.547 864.616L851.342 857.684ZM844.665 896.7C857.283 887.77 860.272 870.302 851.342 857.684L841.547 864.616C846.648 871.825 844.941 881.804 837.732 886.905L844.665 896.7ZM805.648 890.023C814.578 902.641 832.047 905.631 844.665 896.7L837.732 886.905C830.524 892.007 820.545 890.299 815.443 883.091L805.648 890.023Z" fill="#5D0FC4" mask="url(#path-40-inside-4_410_635)"/>
<mask id="path-42-inside-5_410_635" fill="white">
<path fill-rule="evenodd" clip-rule="evenodd" d="M914.95 490.112C923.842 472.503 949.627 474.593 955.567 493.403L984.735 585.767C990.7 604.656 970.617 621.19 953.225 611.708L893.781 579.299C883.35 573.613 879.319 560.672 884.674 550.067L914.95 490.112ZM947.297 567.905C935.746 571.658 923.341 565.337 919.588 553.787C915.835 542.237 922.156 529.831 933.706 526.078C945.256 522.325 957.662 528.646 961.415 540.196C965.168 551.747 958.847 564.152 947.297 567.905Z"/>
</mask>
<path fill-rule="evenodd" clip-rule="evenodd" d="M914.95 490.112C923.842 472.503 949.627 474.593 955.567 493.403L984.735 585.767C990.7 604.656 970.617 621.19 953.225 611.708L893.781 579.299C883.35 573.613 879.319 560.672 884.674 550.067L914.95 490.112ZM947.297 567.905C935.746 571.658 923.341 565.337 919.588 553.787C915.835 542.237 922.156 529.831 933.706 526.078C945.256 522.325 957.662 528.646 961.415 540.196C965.168 551.747 958.847 564.152 947.297 567.905Z" fill="#5D0FC4"/>
<path d="M955.567 493.403L961.289 491.597L961.289 491.597L955.567 493.403ZM914.95 490.112L920.306 492.816L920.306 492.816L914.95 490.112ZM984.735 585.767L990.456 583.96L990.456 583.96L984.735 585.767ZM953.225 611.708L956.097 606.44L956.097 606.44L953.225 611.708ZM893.781 579.299L896.653 574.032L896.653 574.031L893.781 579.299ZM884.674 550.067L879.318 547.362L879.318 547.362L884.674 550.067ZM919.588 553.787L925.294 551.933L925.294 551.933L919.588 553.787ZM933.706 526.078L931.852 520.372L931.852 520.372L933.706 526.078ZM961.415 540.196L955.709 542.051L955.709 542.051L961.415 540.196ZM961.289 491.597C953.728 467.656 920.911 464.996 909.594 487.407L920.306 492.816C926.773 480.01 945.525 481.53 949.846 495.21L961.289 491.597ZM990.456 583.96L961.289 491.597L949.846 495.21L979.013 587.574L990.456 583.96ZM950.353 616.976C972.488 629.044 998.048 608.001 990.456 583.96L979.013 587.574C983.351 601.311 968.746 613.336 956.097 606.44L950.353 616.976ZM890.909 584.567L950.353 616.976L956.097 606.44L896.653 574.032L890.909 584.567ZM879.318 547.362C872.502 560.859 877.634 577.33 890.909 584.567L896.653 574.031C889.067 569.896 886.135 560.484 890.03 552.771L879.318 547.362ZM909.594 487.407L879.318 547.362L890.03 552.771L920.306 492.816L909.594 487.407ZM913.881 555.641C918.658 570.343 934.449 578.389 949.151 573.612L945.442 562.199C937.044 564.928 928.023 560.332 925.294 551.933L913.881 555.641ZM931.852 520.372C917.15 525.149 909.105 540.939 913.881 555.641L925.294 551.933C922.565 543.534 927.161 534.513 935.56 531.784L931.852 520.372ZM967.121 538.342C962.344 523.641 946.554 515.595 931.852 520.372L935.56 531.784C943.959 529.056 952.98 533.652 955.709 542.051L967.121 538.342ZM949.151 573.612C963.852 568.835 971.898 553.044 967.121 538.342L955.709 542.051C958.437 550.449 953.841 559.47 945.442 562.199L949.151 573.612Z" fill="#5D0FC4" mask="url(#path-42-inside-5_410_635)"/>
<path fill-rule="evenodd" clip-rule="evenodd" d="M1005.71 641.293C1005.71 833.063 850.247 988.524 658.476 988.524C466.705 988.524 311.244 833.063 311.244 641.293C311.244 449.522 466.705 294.061 658.476 294.061C850.247 294.061 1005.71 449.522 1005.71 641.293ZM938.502 637.518C938.502 724.53 899.666 802.372 838.559 854.298C841.605 855.862 844.329 858.163 846.443 861.151C853.459 871.064 851.11 884.787 841.197 891.803C831.284 898.819 817.56 896.47 810.545 886.557C808.597 883.805 807.371 880.759 806.828 877.644C763.813 904.857 712.962 920.588 658.476 920.588C604.165 920.588 553.465 904.958 510.538 877.905C510.299 882.172 508.817 886.415 506.016 890.06C498.615 899.689 484.809 901.495 475.18 894.094C465.551 886.693 463.745 872.888 471.146 863.259C473.688 859.951 476.985 857.567 480.61 856.162C418.228 804.245 378.451 725.577 378.451 637.518C378.451 613.754 381.347 590.675 386.803 568.62C383.316 569.267 379.622 569.079 376.012 567.905C364.461 564.153 358.14 551.747 361.893 540.197C365.646 528.646 378.052 522.325 389.602 526.078C393.165 527.236 396.23 529.217 398.656 531.742C437.735 433.746 529.496 362.935 638.474 355.16C636.685 351.978 635.665 348.307 635.665 344.397C635.665 332.253 645.51 322.407 657.655 322.407C669.799 322.407 679.644 332.253 679.644 344.397C679.644 348.263 678.647 351.895 676.896 355.051C788.757 362.394 882.714 436.133 920.585 537.673C923.076 532.352 927.68 528.037 933.707 526.078C945.258 522.326 957.663 528.647 961.416 540.197C965.169 551.747 958.848 564.153 947.298 567.906C941.124 569.912 934.706 569.039 929.495 566.029C935.374 588.865 938.502 612.822 938.502 637.518Z" fill="#5D0FC4"/>
<path fill-rule="evenodd" clip-rule="evenodd" d="M162.641 363.657C157.569 366.85 151.62 372.899 145.151 383.6C144.626 384.47 144.131 385.305 143.663 386.112C119.948 430.21 101.755 478.223 90.1934 529.45C21.6033 833.361 212.368 1135.33 516.279 1203.92C720.149 1249.93 923.146 1179.24 1055.4 1035.96C1132.96 944.532 1161.7 834.256 1173.6 785.095C1148.17 890.192 1070.21 973.946 1040.48 1005.88L1040.42 1005.95L1039.44 1007C1039.07 1007.4 1038.7 1007.79 1038.35 1008.18C1056.23 986.505 1081.88 929.498 1098.64 892.261C1104.49 879.246 1109.26 868.646 1112.23 862.815C1089.03 905.777 1046.81 957.898 1028.59 978.588C1085.19 910.662 1124.35 825.991 1136.86 792.147C1091.65 885.648 1009.21 965.388 973.636 993.57C1022.74 945.864 1068.4 866.92 1085.09 833.411C1056.9 877.439 1024.59 914.087 1011.96 926.907C1043.28 883.585 1075.47 817.394 1087.65 789.714C1074.2 816.984 1029.56 882.648 1008.92 912.071C1065.25 829.115 1093.24 758.873 1100.2 734.122C1075.83 812.972 998.849 909.494 963.403 947.899C986.57 921.811 1013.64 859.565 1030.21 819.715C948.626 992.149 756.721 1091.41 563.934 1047.9C340.517 997.472 200.521 774.405 251.244 549.662C259.972 510.991 273.777 474.79 291.793 441.611C293.686 437.545 295.104 432.978 295.235 429.193L162.641 363.657Z" fill="#5D0FC4"/>
<path d="M244.799 237.096C248.595 229.336 256.102 227.675 262.774 230.925L356.298 275.717C362.97 278.967 366.279 285.896 362.483 293.656L351.133 314.449C350.5 315.743 349.086 316.352 347.974 315.81L236.487 260.676C235.376 260.135 234.987 258.647 235.62 257.354L244.799 237.096Z" fill="#8671F4"/>
<path fill-rule="evenodd" clip-rule="evenodd" d="M356.094 157.036C347.483 152.842 338.486 153.569 333.586 163.586L302.308 244.992L280.898 271.32C280.265 272.614 280.654 274.101 281.766 274.643L308.924 287.872C310.036 288.414 311.45 287.804 312.083 286.511L320.311 253.781L364.771 178.776C369.671 168.759 364.706 161.231 356.094 157.036ZM352.171 165.076C348.196 163.14 343.144 165.315 340.883 169.938C338.621 174.561 340.101 179.797 344.076 181.733C348.05 183.669 353.014 181.572 355.275 176.949C357.537 172.326 356.145 167.012 352.171 165.076Z" fill="#8671F4"/>
<path d="M231.634 266.144C232.494 264.385 234.543 263.618 236.211 264.43L344.924 317.397C346.592 318.21 347.247 320.294 346.387 322.053L345.348 324.176C344.488 325.935 342.439 326.702 340.771 325.89L232.058 272.923C230.39 272.11 229.735 270.026 230.595 268.267L231.634 266.144Z" fill="#8671F4"/>
<path fill-rule="evenodd" clip-rule="evenodd" d="M162.245 363.925C163.684 362.984 164.967 362.338 166.064 361.914C184.328 356.926 213.13 317.017 228.957 275.076L340.021 329.176C334.176 343.69 324.593 360.647 315.708 376.367C303.253 398.405 292.173 418.01 294.698 425.04C295.145 426.284 295.301 427.762 295.228 429.377L278.469 422.085L305.04 364.075L275.559 420.651L257.287 413.623L279.891 361.974L255.302 410.663L243.849 405.016L268.731 347.838L238.876 402.564L212.562 389.591L243.617 324.005L210.907 388.775L203.203 384.977L227.293 332.003L191.901 381.933L162.245 363.925Z" fill="#8671F4"/>
<path fill-rule="evenodd" clip-rule="evenodd" d="M165.577 362.112C164.593 362.53 163.476 363.119 162.245 363.925L191.902 381.933L227.294 332.003L203.204 384.977L210.908 388.775L243.618 324.006L212.563 389.591L238.876 402.564L268.732 347.838L243.849 405.016L255.303 410.663L279.892 361.974L257.288 413.623L275.56 420.651L305.041 364.075L278.47 422.085L295.227 429.377C295.243 429.044 295.248 428.716 295.243 428.396C289.571 420.355 302.3 398.473 320.825 366.629L320.829 366.622L320.835 366.612C323.026 362.845 325.298 358.939 327.631 354.9C332.404 345.993 336.785 337.21 340.02 329.176L228.957 275.076C213.397 316.311 186.511 355.116 167.541 361.424L167.568 361.493C166.962 361.613 166.296 361.818 165.577 362.112Z" fill="#CFC8FF"/>
<path fill-rule="evenodd" clip-rule="evenodd" d="M162.234 363.918L191.903 381.933L227.295 332.003L203.204 384.977L210.909 388.775L243.619 324.006L212.564 389.591L238.877 402.565L268.733 347.838L243.85 405.016L255.303 410.663L279.893 361.974L257.288 413.623L275.561 420.651L305.041 364.075L278.471 422.085L295.228 429.377C295.301 427.762 295.145 426.284 294.698 425.04C292.173 418.01 303.253 398.405 315.708 376.367L315.709 376.365C319.441 369.763 323.296 362.942 326.945 356.176C325.661 351.797 312.023 348.503 306.198 358.95C299.598 370.788 278.818 372.761 284.086 353.96C288.301 338.919 279.293 337.33 274.262 338.416C268.62 340.699 258.116 341.809 261.236 327.982C264.357 314.154 252.574 316.425 246.292 319.289C243.147 320.352 236.875 319.677 236.945 308.465C237.015 297.254 222.448 301.54 215.155 305.085C189.835 346.221 175.838 359.352 166.18 361.809C164.933 362.324 163.615 363.015 162.234 363.918Z" fill="#5D0FC4"/>
<path d="M215.596 319.024L167.004 384.431L282.506 438.178L311.131 359.038L298.137 368.92L286.463 372.949L272.285 347.196L255.214 343.343L252.789 322.293L215.596 319.024Z" fill="#5D0FC4"/>
<path d="M279.638 239.024C279.449 238.939 279.263 238.848 279.079 238.751L279.638 239.024C289.798 243.596 307.164 231.754 315.415 211.242L338.292 223.29C327.53 240.38 325.11 261.156 340.761 268.773L279.638 239.024Z" fill="#8671F4"/>
<path d="M483.919 177.437L493.505 199.145C494.353 201.066 495.115 202.972 495.789 204.862C496.509 206.733 496.849 208.531 496.81 210.256C496.816 211.962 496.324 213.567 495.333 215.071C494.323 216.532 492.523 217.834 489.932 218.978C487.431 220.082 485.301 220.516 483.541 220.279C481.807 219.977 480.311 219.25 479.055 218.096C477.798 216.943 476.699 215.48 475.756 213.708C474.858 211.916 473.985 210.06 473.137 208.139L445.208 144.891C444.36 142.97 443.576 141.074 442.857 139.203C442.182 137.313 441.842 135.515 441.836 133.809C441.83 132.104 442.31 130.531 443.275 129.091C444.265 127.586 446.011 126.281 448.512 125.177L470.623 115.413C476.28 113.236 481.751 112.208 487.035 112.329C489.306 112.394 491.608 112.712 493.942 113.283C496.32 113.834 498.635 114.786 500.888 116.14C503.166 117.43 505.32 119.227 507.352 121.533C509.365 123.793 511.14 126.665 512.679 130.15C514.789 134.929 515.884 139.463 515.963 143.752C516.067 147.976 515.232 151.947 513.458 155.666C511.709 159.321 509.056 162.681 505.499 165.746C501.967 168.747 497.632 171.382 492.495 173.65L483.919 177.437ZM485.99 157.467C488.164 156.347 489.937 154.923 491.31 153.196C491.892 152.459 492.402 151.62 492.84 150.679C493.279 149.738 493.591 148.693 493.778 147.543C493.944 146.349 493.908 145.057 493.668 143.668C493.473 142.26 493.02 140.752 492.31 139.144C491.64 137.625 490.879 136.386 490.029 135.427C489.203 134.404 488.345 133.609 487.454 133.041C486.543 132.429 485.625 131.981 484.698 131.696C483.772 131.411 482.863 131.226 481.97 131.139C479.898 131.04 477.773 131.365 475.595 132.113L465.813 136.433L476.878 161.491L485.99 157.467Z" fill="#8671F4"/>
<path d="M623.613 116.52C623.575 111.833 624.227 107.848 625.568 104.566C626.909 101.235 628.62 98.4621 630.702 96.2482C632.833 94.0339 635.163 92.3063 637.693 91.0655C640.27 89.7754 642.753 88.8035 645.14 88.1497C647.577 87.4955 649.771 87.0874 651.723 86.9254C653.675 86.7634 655.114 86.6787 656.042 86.6713L658.532 86.6515C659.46 86.6441 660.901 86.7059 662.855 86.8368C664.809 86.9678 666.985 87.3411 669.383 87.9568C671.78 88.5725 674.254 89.505 676.803 90.7543C679.4 91.9544 681.733 93.6449 683.801 95.8258C685.918 98.0063 687.649 100.751 688.994 104.061C690.387 107.322 691.102 111.296 691.14 115.983L691.488 159.78C691.527 164.614 690.876 168.721 689.535 172.101C688.244 175.48 686.557 178.302 684.476 180.564C682.443 182.827 680.138 184.627 677.56 185.966C675.031 187.256 672.573 188.228 670.186 188.881C667.798 189.535 665.629 189.943 663.677 190.105C661.725 190.267 660.285 190.352 659.357 190.359L656.867 190.379C655.939 190.386 654.499 190.325 652.544 190.194C650.59 190.063 648.39 189.69 645.943 189.074C643.546 188.459 641.048 187.526 638.45 186.277C635.901 184.979 633.543 183.216 631.377 180.987C629.259 178.757 627.504 175.964 626.11 172.605C624.716 169.247 623.999 165.151 623.961 160.318L623.613 116.52ZM648.299 162.907C648.411 164.713 648.838 166.297 649.582 167.658C650.226 168.873 651.187 169.965 652.464 170.931C653.79 171.897 655.65 172.37 658.042 172.351C660.386 172.333 662.189 171.83 663.45 170.844C664.712 169.857 665.655 168.751 666.28 167.525C666.953 166.152 667.355 164.562 667.488 162.755L667.108 115.002C666.947 113.246 666.52 111.662 665.825 110.251C665.181 109.085 664.22 108.018 662.943 107.052C661.665 106.036 659.854 105.538 657.511 105.557C655.118 105.576 653.267 106.103 651.957 107.139C650.695 108.126 649.752 109.207 649.126 110.384C648.405 111.806 648.003 113.396 647.919 115.155L648.299 162.907Z" fill="#8671F4"/>
<path d="M874.161 126.669C875.431 127.175 876.52 127.872 877.428 128.759C878.381 129.665 879.126 130.697 879.662 131.857C880.262 132.99 880.654 134.249 880.837 135.636C881.038 136.978 881.022 138.338 880.788 139.717L870.857 198.676L873.17 199.597C878.6 191.511 884.147 183.262 889.812 174.849C895.495 166.391 901.105 158.114 906.643 150.019C907.738 148.458 908.974 147.137 910.351 146.056C911.547 145.166 912.969 144.497 914.619 144.051C916.332 143.577 918.232 143.756 920.318 144.587C921.906 145.22 923.172 146.066 924.117 147.125C925.124 148.158 925.833 149.281 926.243 150.496C926.716 151.683 926.926 152.87 926.873 154.058C926.866 155.264 926.663 156.366 926.266 157.364C926.049 157.908 925.818 158.421 925.574 158.902C925.33 159.383 925.09 159.786 924.855 160.113C924.583 160.531 924.33 160.903 924.095 161.229L875.956 227.829C874.661 229.1 873.211 230.099 871.607 230.827C870.239 231.491 868.612 231.946 866.727 232.193C864.904 232.414 862.859 232.072 860.591 231.168L858.278 230.246C856.01 229.343 854.313 228.193 853.187 226.799C852.079 225.358 851.301 223.945 850.855 222.558C850.327 220.981 850.121 219.322 850.237 217.581L856.598 173.914L854.284 172.993C850.266 178.855 846.054 184.877 841.646 191.058C837.284 197.256 833.071 203.278 829.008 209.123C827.804 210.43 826.468 211.475 825 212.256C823.677 212.938 822.118 213.421 820.323 213.704C818.592 213.961 816.592 213.637 814.324 212.733L812.011 211.811C809.743 210.908 807.978 209.731 806.715 208.282C805.516 206.806 804.626 205.347 804.044 203.906C803.334 202.257 802.947 200.526 802.881 198.712L814.006 117.365C814.06 116.966 814.132 116.522 814.222 116.032C814.275 115.633 814.379 115.175 814.533 114.658C814.686 114.141 814.871 113.61 815.088 113.066C815.486 112.068 816.074 111.12 816.852 110.221C817.676 109.34 818.646 108.623 819.76 108.068C820.938 107.486 822.225 107.158 823.621 107.084C825.081 106.982 826.605 107.247 828.192 107.88C830.279 108.711 831.758 109.879 832.631 111.383C833.567 112.86 834.163 114.332 834.418 115.801C834.675 117.532 834.663 119.341 834.385 121.228L824.59 180.241L826.903 181.162C829.428 177.333 832.102 173.326 834.925 169.142C837.767 164.913 840.617 160.661 843.477 156.387C846.399 152.085 849.273 147.842 852.096 143.659C854.983 139.448 857.743 135.423 860.376 131.584C862.041 129.251 864.116 127.607 866.599 126.652C869.1 125.651 871.621 125.657 874.161 126.669Z" fill="#8671F4"/>
<path d="M1056.6 243.852C1059.76 246.976 1062.3 250.276 1064.22 253.752C1066.18 257.263 1067.37 260.812 1067.81 264.4C1068.31 267.988 1067.97 271.529 1066.78 275.023C1065.63 278.552 1063.49 281.896 1060.36 285.056L1028.44 317.35C1025.76 320.059 1023.1 322.163 1020.45 323.663C1017.83 325.128 1015.28 326.144 1012.8 326.711C1010.39 327.277 1008.04 327.498 1005.76 327.373C1003.51 327.213 1001.44 326.845 999.539 326.269C994.973 324.914 990.695 322.47 986.704 318.937L969.411 301.842C967.432 299.885 966.23 298.045 965.806 296.321C965.416 294.563 965.527 292.887 966.139 291.296C966.786 289.669 967.761 288.092 969.064 286.566C970.402 285.073 971.826 283.563 973.337 282.035L1021.84 232.969C1023.32 231.476 1024.79 230.052 1026.27 228.697C1027.78 227.376 1029.33 226.4 1030.92 225.77C1032.5 225.139 1034.16 225.026 1035.88 225.43C1037.65 225.8 1039.52 226.963 1041.5 228.92L1056.6 243.852ZM1037.37 248.935L989.583 297.272L996.355 303.966C997.916 305.372 999.597 306.347 1001.4 306.889C1002.12 307.126 1002.93 307.277 1003.83 307.341C1004.73 307.405 1005.64 307.348 1006.58 307.17C1007.54 306.957 1008.52 306.554 1009.52 305.962C1010.55 305.403 1011.58 304.603 1012.61 303.561L1042.99 272.83C1044.13 271.684 1045 270.557 1045.62 269.448C1046.3 268.34 1046.78 267.266 1047.05 266.229C1047.32 265.192 1047.43 264.207 1047.39 263.275C1047.35 262.343 1047.23 261.498 1047.02 260.739C1046.49 258.912 1045.53 257.209 1044.14 255.629L1037.37 248.935Z" fill="#8671F4"/>
<path d="M1174.29 421.412C1175.09 423.193 1175.84 425.026 1176.53 426.912C1177.22 428.797 1177.58 430.615 1177.62 432.365C1177.66 434.114 1177.24 435.748 1176.37 437.264C1175.55 438.761 1174 440.02 1171.73 441.043C1169.46 442.066 1167.47 442.401 1165.76 442.048C1164.09 441.675 1162.61 440.894 1161.33 439.706C1160.04 438.518 1158.92 437.041 1157.96 435.276C1157.01 433.511 1156.13 431.738 1155.33 429.957L1148.17 414.064L1130 422.248L1133.79 430.662C1134.6 432.443 1135.33 434.254 1136 436.094C1136.73 437.96 1137.1 439.723 1137.1 441.384C1137.16 443.069 1136.77 444.638 1135.93 446.09C1135.12 447.522 1133.63 448.729 1131.45 449.712C1129.23 450.715 1127.31 451.042 1125.71 450.693C1124.11 450.344 1122.67 449.598 1121.41 448.454C1120.21 447.335 1119.13 445.893 1118.17 444.128C1117.28 442.387 1116.43 440.627 1115.63 438.846L1111.84 430.432L1092.61 439.097L1099.77 454.99C1100.57 456.771 1101.32 458.604 1102.01 460.489C1102.69 462.375 1103.06 464.192 1103.1 465.942C1103.18 467.672 1102.79 469.295 1101.92 470.812C1101.09 472.308 1099.57 473.558 1097.34 474.561C1095.03 475.604 1093 475.927 1091.27 475.529C1089.56 475.176 1088.06 474.405 1086.77 473.217C1085.49 472.028 1084.37 470.552 1083.41 468.787C1082.46 467.022 1081.59 465.271 1080.8 463.535L1069.01 437.358C1067.89 434.865 1067.46 432.728 1067.73 430.947C1068.02 429.21 1068.73 427.709 1069.88 426.444C1071.06 425.159 1072.54 424.038 1074.31 423.083C1076.09 422.171 1077.94 421.284 1079.86 420.422L1142.63 392.139C1144.54 391.277 1146.43 390.479 1148.3 389.746C1150.18 389.057 1151.98 388.703 1153.68 388.684C1155.43 388.646 1157.05 389.094 1158.54 390.028C1160.06 391.007 1161.37 392.743 1162.5 395.236L1174.29 421.412Z" fill="#8671F4"/>
<path d="M1191.9 571.433C1194 571.36 1196.05 571.337 1198.06 571.364C1200.06 571.44 1201.86 571.793 1203.44 572.421C1205.03 573.05 1206.31 574.079 1207.29 575.511C1208.32 576.989 1208.88 579.095 1208.98 581.828L1209.82 605.983C1209.74 611.995 1208.66 617.408 1206.58 622.22C1205.67 624.255 1204.52 626.249 1203.13 628.204C1201.78 630.205 1200.06 632 1197.96 633.588C1195.92 635.174 1193.47 636.481 1190.63 637.509C1187.78 638.538 1184.45 639.118 1180.65 639.252C1179.87 639.279 1178.81 639.243 1177.49 639.142C1176.22 639.04 1174.79 638.773 1173.21 638.34C1171.68 637.905 1170.07 637.301 1168.39 636.53C1166.7 635.759 1165.07 634.716 1163.51 633.403C1161.95 632.09 1160.5 630.455 1159.16 628.498C1157.83 626.591 1156.72 624.309 1155.85 621.652C1155.22 623.384 1154.38 625.148 1153.32 626.944C1152.31 628.739 1150.97 630.373 1149.31 631.848C1147.66 633.323 1145.65 634.542 1143.29 635.504C1140.93 636.515 1138.16 637.076 1134.99 637.187L1124.6 637.552C1124.01 637.572 1123.53 637.736 1123.15 638.042C1122.77 638.349 1122.44 638.653 1122.15 638.956C1121.02 640.169 1120.02 640.888 1119.15 641.114C1118.33 641.338 1117.65 641.459 1117.11 641.478C1115.4 641.538 1113.95 641.247 1112.76 640.605C1111.56 639.963 1110.58 639.093 1109.81 637.997C1109.04 636.949 1108.48 635.722 1108.14 634.317C1107.75 632.963 1107.53 631.554 1107.48 630.09C1107.42 628.48 1107.61 626.836 1108.04 625.16C1108.52 623.482 1109.22 621.943 1110.15 620.542C1111.08 619.142 1112.26 617.977 1113.69 617.047C1115.13 616.166 1116.79 615.692 1118.7 615.626L1134.22 615.082C1136.36 615.007 1138.33 614.791 1140.13 614.435C1141.92 614.079 1143.47 613.463 1144.75 612.587C1146.04 611.711 1147.03 610.529 1147.71 609.039C1148.39 607.55 1148.69 605.634 1148.61 603.291L1148.32 595.093L1123.87 595.95C1121.72 596.025 1119.62 596.026 1117.57 595.951C1115.52 595.925 1113.67 595.599 1112.04 594.972C1110.45 594.344 1109.14 593.29 1108.12 591.812C1107.14 590.331 1106.6 588.201 1106.5 585.419C1106.4 582.686 1106.79 580.547 1107.67 579.002C1108.59 577.504 1109.82 576.386 1111.36 575.648C1112.95 574.908 1114.76 574.43 1116.81 574.211C1118.85 574.042 1120.95 573.92 1123.1 573.844L1191.9 571.433ZM1165.06 604.473C1165.25 606.91 1165.91 609.085 1167.05 611C1167.52 611.814 1168.11 612.599 1168.82 613.356C1169.53 614.113 1170.41 614.791 1171.46 615.389C1172.5 615.987 1173.72 616.434 1175.09 616.727C1176.47 617.07 1178.07 617.209 1179.87 617.146C1181.48 617.09 1182.89 616.845 1184.1 616.412C1185.35 616.026 1186.44 615.524 1187.34 614.906C1188.25 614.287 1189.01 613.577 1189.61 612.774C1190.22 612.02 1190.71 611.245 1191.07 610.451C1191.93 608.564 1192.4 606.447 1192.46 604.1L1192.09 593.559L1164.71 594.519L1165.06 604.473Z" fill="#8671F4"/>
</g>
<defs>
<clipPath id="clip0_410_635">
<rect width="1300" height="1300" fill="white"/>
</clipPath>
</defs>
</svg>
